<mxfile host="app.diagrams.net" modified="2023-03-13T02:40:43.536Z" agent="5.0 (Macintosh; Intel Mac OS X 10_15_7) AppleWebKit/537.36 (KHTML, like Gecko) Chrome/110.0.0.0 Safari/537.36" etag="SQZ3TlURD6DSOhW6RN5A" version="21.0.6" type="github">
  <diagram id="prtHgNgQTEPvFCAcTncT" name="Page-1">
    <mxGraphModel dx="2021" dy="647" grid="1" gridSize="10" guides="1" tooltips="1" connect="1" arrows="1" fold="1" page="1" pageScale="1" pageWidth="827" pageHeight="1169" math="0" shadow="0">
      <root>
        <mxCell id="0" />
        <mxCell id="1" parent="0" />
        <mxCell id="iywHWgDSQWEM5n1aMCzX-1" value="" style="rounded=0;whiteSpace=wrap;html=1;" vertex="1" parent="1">
          <mxGeometry x="170" y="320" width="110" height="40" as="geometry" />
        </mxCell>
        <mxCell id="iywHWgDSQWEM5n1aMCzX-47" style="edgeStyle=orthogonalEdgeStyle;rounded=0;orthogonalLoop=1;jettySize=auto;html=1;exitX=0.25;exitY=1;exitDx=0;exitDy=0;entryX=0.25;entryY=0;entryDx=0;entryDy=0;" edge="1" parent="1" source="iywHWgDSQWEM5n1aMCzX-2" target="iywHWgDSQWEM5n1aMCzX-6">
          <mxGeometry relative="1" as="geometry" />
        </mxCell>
        <mxCell id="iywHWgDSQWEM5n1aMCzX-2" value="" style="rounded=1;whiteSpace=wrap;html=1;" vertex="1" parent="1">
          <mxGeometry x="110" y="280" width="820" height="120" as="geometry" />
        </mxCell>
        <mxCell id="iywHWgDSQWEM5n1aMCzX-3" value="Amis" style="rounded=0;whiteSpace=wrap;html=1;" vertex="1" parent="1">
          <mxGeometry x="470" y="305" width="120" height="60" as="geometry" />
        </mxCell>
        <mxCell id="iywHWgDSQWEM5n1aMCzX-5" value="" style="rounded=0;whiteSpace=wrap;html=1;" vertex="1" parent="1">
          <mxGeometry x="170" y="520" width="110" height="40" as="geometry" />
        </mxCell>
        <mxCell id="iywHWgDSQWEM5n1aMCzX-48" style="edgeStyle=orthogonalEdgeStyle;rounded=0;orthogonalLoop=1;jettySize=auto;html=1;exitX=0.25;exitY=1;exitDx=0;exitDy=0;entryX=0.25;entryY=0;entryDx=0;entryDy=0;" edge="1" parent="1" source="iywHWgDSQWEM5n1aMCzX-6" target="iywHWgDSQWEM5n1aMCzX-10">
          <mxGeometry relative="1" as="geometry" />
        </mxCell>
        <mxCell id="iywHWgDSQWEM5n1aMCzX-50" style="edgeStyle=orthogonalEdgeStyle;rounded=0;orthogonalLoop=1;jettySize=auto;html=1;exitX=0.75;exitY=1;exitDx=0;exitDy=0;entryX=0.776;entryY=0;entryDx=0;entryDy=0;entryPerimeter=0;" edge="1" parent="1" source="iywHWgDSQWEM5n1aMCzX-6" target="iywHWgDSQWEM5n1aMCzX-10">
          <mxGeometry relative="1" as="geometry" />
        </mxCell>
        <mxCell id="iywHWgDSQWEM5n1aMCzX-6" value="" style="rounded=1;whiteSpace=wrap;html=1;" vertex="1" parent="1">
          <mxGeometry x="110" y="480" width="820" height="120" as="geometry" />
        </mxCell>
        <mxCell id="iywHWgDSQWEM5n1aMCzX-7" value="Post" style="rounded=0;whiteSpace=wrap;html=1;" vertex="1" parent="1">
          <mxGeometry x="200" y="510" width="120" height="60" as="geometry" />
        </mxCell>
        <mxCell id="iywHWgDSQWEM5n1aMCzX-8" value="Get" style="rounded=0;whiteSpace=wrap;html=1;" vertex="1" parent="1">
          <mxGeometry x="380" y="510" width="120" height="60" as="geometry" />
        </mxCell>
        <mxCell id="iywHWgDSQWEM5n1aMCzX-9" value="" style="rounded=0;whiteSpace=wrap;html=1;" vertex="1" parent="1">
          <mxGeometry x="170" y="720" width="110" height="40" as="geometry" />
        </mxCell>
        <mxCell id="iywHWgDSQWEM5n1aMCzX-10" value="" style="rounded=1;whiteSpace=wrap;html=1;" vertex="1" parent="1">
          <mxGeometry x="120" y="700" width="780" height="130" as="geometry" />
        </mxCell>
        <mxCell id="iywHWgDSQWEM5n1aMCzX-11" value="Web模块" style="rounded=0;whiteSpace=wrap;html=1;" vertex="1" parent="1">
          <mxGeometry x="160" y="740" width="120" height="60" as="geometry" />
        </mxCell>
        <mxCell id="iywHWgDSQWEM5n1aMCzX-12" value="定时任务模块" style="rounded=0;whiteSpace=wrap;html=1;" vertex="1" parent="1">
          <mxGeometry x="320" y="740" width="120" height="60" as="geometry" />
        </mxCell>
        <mxCell id="iywHWgDSQWEM5n1aMCzX-13" value="前端工程" style="text;strokeColor=none;align=center;fillColor=none;html=1;verticalAlign=middle;whiteSpace=wrap;rounded=0;" vertex="1" parent="1">
          <mxGeometry x="-80" y="310" width="180" height="50" as="geometry" />
        </mxCell>
        <mxCell id="iywHWgDSQWEM5n1aMCzX-15" value="" style="endArrow=none;dashed=1;html=1;rounded=0;" edge="1" parent="1">
          <mxGeometry width="50" height="50" relative="1" as="geometry">
            <mxPoint x="-120" y="420" as="sourcePoint" />
            <mxPoint x="1000" y="420" as="targetPoint" />
            <Array as="points">
              <mxPoint x="470" y="420" />
            </Array>
          </mxGeometry>
        </mxCell>
        <mxCell id="iywHWgDSQWEM5n1aMCzX-16" value="交互层" style="text;strokeColor=none;align=center;fillColor=none;html=1;verticalAlign=middle;whiteSpace=wrap;rounded=0;" vertex="1" parent="1">
          <mxGeometry x="-90" y="520" width="180" height="50" as="geometry" />
        </mxCell>
        <mxCell id="iywHWgDSQWEM5n1aMCzX-17" value="业务层" style="text;strokeColor=none;align=center;fillColor=none;html=1;verticalAlign=middle;whiteSpace=wrap;rounded=0;" vertex="1" parent="1">
          <mxGeometry x="-90" y="750" width="180" height="50" as="geometry" />
        </mxCell>
        <mxCell id="iywHWgDSQWEM5n1aMCzX-18" value="数据层" style="text;strokeColor=none;align=center;fillColor=none;html=1;verticalAlign=middle;whiteSpace=wrap;rounded=0;" vertex="1" parent="1">
          <mxGeometry x="-90" y="945" width="180" height="50" as="geometry" />
        </mxCell>
        <mxCell id="iywHWgDSQWEM5n1aMCzX-19" value="" style="rounded=0;whiteSpace=wrap;html=1;" vertex="1" parent="1">
          <mxGeometry x="180" y="955" width="110" height="40" as="geometry" />
        </mxCell>
        <mxCell id="iywHWgDSQWEM5n1aMCzX-20" value="" style="rounded=1;whiteSpace=wrap;html=1;" vertex="1" parent="1">
          <mxGeometry x="120" y="915" width="820" height="120" as="geometry" />
        </mxCell>
        <mxCell id="iywHWgDSQWEM5n1aMCzX-21" value="事务" style="rounded=0;whiteSpace=wrap;html=1;" vertex="1" parent="1">
          <mxGeometry x="250" y="940" width="120" height="60" as="geometry" />
        </mxCell>
        <mxCell id="iywHWgDSQWEM5n1aMCzX-22" value="数据缓存" style="rounded=0;whiteSpace=wrap;html=1;" vertex="1" parent="1">
          <mxGeometry x="444" y="940" width="120" height="60" as="geometry" />
        </mxCell>
        <mxCell id="iywHWgDSQWEM5n1aMCzX-23" value="" style="rounded=0;whiteSpace=wrap;html=1;" vertex="1" parent="1">
          <mxGeometry x="180" y="1160" width="110" height="40" as="geometry" />
        </mxCell>
        <mxCell id="iywHWgDSQWEM5n1aMCzX-24" value="" style="rounded=1;whiteSpace=wrap;html=1;" vertex="1" parent="1">
          <mxGeometry x="120" y="1120" width="820" height="120" as="geometry" />
        </mxCell>
        <mxCell id="iywHWgDSQWEM5n1aMCzX-25" value="MYSQL" style="rounded=0;whiteSpace=wrap;html=1;" vertex="1" parent="1">
          <mxGeometry x="444" y="1150" width="120" height="60" as="geometry" />
        </mxCell>
        <mxCell id="iywHWgDSQWEM5n1aMCzX-27" value="数据库" style="text;strokeColor=none;align=center;fillColor=none;html=1;verticalAlign=middle;whiteSpace=wrap;rounded=0;" vertex="1" parent="1">
          <mxGeometry x="-90" y="1150" width="180" height="50" as="geometry" />
        </mxCell>
        <mxCell id="iywHWgDSQWEM5n1aMCzX-28" value="" style="rounded=0;whiteSpace=wrap;html=1;" vertex="1" parent="1">
          <mxGeometry x="175" y="1340" width="110" height="40" as="geometry" />
        </mxCell>
        <mxCell id="iywHWgDSQWEM5n1aMCzX-29" value="" style="rounded=1;whiteSpace=wrap;html=1;" vertex="1" parent="1">
          <mxGeometry x="120" y="1290" width="820" height="120" as="geometry" />
        </mxCell>
        <mxCell id="iywHWgDSQWEM5n1aMCzX-30" value="服务器" style="rounded=0;whiteSpace=wrap;html=1;" vertex="1" parent="1">
          <mxGeometry x="450" y="1320" width="120" height="60" as="geometry" />
        </mxCell>
        <mxCell id="iywHWgDSQWEM5n1aMCzX-32" value="运行环境" style="text;strokeColor=none;align=center;fillColor=none;html=1;verticalAlign=middle;whiteSpace=wrap;rounded=0;" vertex="1" parent="1">
          <mxGeometry x="-90" y="1320" width="180" height="50" as="geometry" />
        </mxCell>
        <mxCell id="iywHWgDSQWEM5n1aMCzX-33" value="" style="endArrow=none;dashed=1;html=1;rounded=0;" edge="1" parent="1">
          <mxGeometry width="50" height="50" relative="1" as="geometry">
            <mxPoint x="-120" y="640" as="sourcePoint" />
            <mxPoint x="1000" y="640" as="targetPoint" />
            <Array as="points">
              <mxPoint x="470" y="640" />
            </Array>
          </mxGeometry>
        </mxCell>
        <mxCell id="iywHWgDSQWEM5n1aMCzX-34" value="" style="endArrow=none;dashed=1;html=1;rounded=0;" edge="1" parent="1">
          <mxGeometry width="50" height="50" relative="1" as="geometry">
            <mxPoint x="-80" y="860" as="sourcePoint" />
            <mxPoint x="1040" y="860" as="targetPoint" />
            <Array as="points">
              <mxPoint x="510" y="860" />
            </Array>
          </mxGeometry>
        </mxCell>
        <mxCell id="iywHWgDSQWEM5n1aMCzX-35" value="" style="endArrow=none;dashed=1;html=1;rounded=0;" edge="1" parent="1">
          <mxGeometry width="50" height="50" relative="1" as="geometry">
            <mxPoint x="-80" y="1090" as="sourcePoint" />
            <mxPoint x="1040" y="1090" as="targetPoint" />
            <Array as="points">
              <mxPoint x="510" y="1090" />
            </Array>
          </mxGeometry>
        </mxCell>
        <mxCell id="iywHWgDSQWEM5n1aMCzX-36" value="" style="endArrow=none;dashed=1;html=1;rounded=0;" edge="1" parent="1">
          <mxGeometry width="50" height="50" relative="1" as="geometry">
            <mxPoint x="-80" y="1260" as="sourcePoint" />
            <mxPoint x="1040" y="1260" as="targetPoint" />
            <Array as="points">
              <mxPoint x="510" y="1260" />
            </Array>
          </mxGeometry>
        </mxCell>
        <mxCell id="iywHWgDSQWEM5n1aMCzX-38" value="Delete" style="rounded=0;whiteSpace=wrap;html=1;" vertex="1" parent="1">
          <mxGeometry x="570" y="510" width="120" height="60" as="geometry" />
        </mxCell>
        <mxCell id="iywHWgDSQWEM5n1aMCzX-39" value="Put" style="rounded=0;whiteSpace=wrap;html=1;" vertex="1" parent="1">
          <mxGeometry x="740" y="510" width="120" height="60" as="geometry" />
        </mxCell>
        <mxCell id="iywHWgDSQWEM5n1aMCzX-42" value="Api模块" style="rounded=0;whiteSpace=wrap;html=1;" vertex="1" parent="1">
          <mxGeometry x="470" y="740" width="120" height="60" as="geometry" />
        </mxCell>
        <mxCell id="iywHWgDSQWEM5n1aMCzX-43" value="消息处理模块" style="rounded=0;whiteSpace=wrap;html=1;" vertex="1" parent="1">
          <mxGeometry x="620" y="740" width="120" height="60" as="geometry" />
        </mxCell>
        <mxCell id="iywHWgDSQWEM5n1aMCzX-44" value="实时流处理模块" style="rounded=0;whiteSpace=wrap;html=1;" vertex="1" parent="1">
          <mxGeometry x="770" y="740" width="120" height="60" as="geometry" />
        </mxCell>
        <mxCell id="iywHWgDSQWEM5n1aMCzX-45" value="Ajax交互" style="text;strokeColor=none;align=center;fillColor=none;html=1;verticalAlign=middle;whiteSpace=wrap;rounded=0;" vertex="1" parent="1">
          <mxGeometry x="120" y="525" width="60" height="30" as="geometry" />
        </mxCell>
        <mxCell id="iywHWgDSQWEM5n1aMCzX-46" value="读写数据库" style="rounded=0;whiteSpace=wrap;html=1;" vertex="1" parent="1">
          <mxGeometry x="640" y="940" width="120" height="60" as="geometry" />
        </mxCell>
      </root>
    </mxGraphModel>
  </diagram>
</mxfile>
